# xmcd
#
# Track frame offsets:
#       150
#       18515
#       31115
#       44852
#       59777
#       77415
#       98240
#       110730
#       122865
#       134627
#       149387
#       159725
#       179505
#       191385
#       206335
#       217112
#
# Disc length: 3099 seconds
#
# Revision: 0
# Processed by: cddbd v1.5PL3 Copyright (c) Steve Scherf et al.
# Submitted via: WhereIsIt 3.57
#
DISCID=f70c1910
DTITLE=Billy Swan - choice cuts plus
DYEAR=1900
DGENRE=
TTITLE0=I can help
TTITLE1=blue love (in my heart)
TTITLE2=still thinkin' bout you
TTITLE3=match box
TTITLE4=pardon me
TTITLE5=lover please
TTITLE6=go on home girl
TTITLE7=my little girl
TTITLE8=home of the blues
TTITLE9=I hear you knocking
TTITLE10=ms misery
TTITLE11=smoky places
TTITLE12=love you baby to the bone
TTITLE13=don't kill our love
TTITLE14=ubangi stomp
TTITLE15=I got it for you
EXTD=
EXTT0=
EXTT1=
EXTT2=
EXTT3=
EXTT4=
EXTT5=
EXTT6=
EXTT7=
EXTT8=
EXTT9=
EXTT10=
EXTT11=
EXTT12=
EXTT13=
EXTT14=
EXTT15=
PLAYORDER=
